<svg width="36" height="36" viewBox="0 0 36 36" fill="none" xmlns="http://www.w3.org/2000/svg">
    <path d="M19.284 5.5c1.407.002 2.12.01 2.736.028l.242.008c.28.01.557.023.89.038 1.33.062 2.238.272 3.035.581A6.09 6.09 0 0 1 28.4 7.597a6.135 6.135 0 0 1 1.442 2.215c.308.796.519 1.704.581 3.034.015.333.027.61.037.89l.008.243c.018.616.026 1.329.029 2.736l.001.931v1.638a98.456 98.456 0 0 1-.029 2.736l-.008.242c-.01.28-.022.557-.038.89-.061 1.33-.273 2.238-.581 3.035A6.104 6.104 0 0 1 28.4 28.4a6.142 6.142 0 0 1-2.214 1.442c-.797.308-1.705.519-3.035.581-.333.015-.61.027-.89.037l-.242.008a98.67 98.67 0 0 1-2.736.03H16.714a97.768 97.768 0 0 1-2.735-.029l-.243-.008c-.28-.01-.557-.022-.89-.038-1.33-.061-2.236-.273-3.034-.581A6.11 6.11 0 0 1 7.597 28.4a6.129 6.129 0 0 1-1.442-2.214c-.309-.797-.518-1.704-.58-3.035a92.45 92.45 0 0 1-.038-.89l-.008-.242a98.798 98.798 0 0 1-.029-2.736v-2.57c.002-1.406.01-2.12.028-2.735l.008-.243c.01-.28.023-.557.038-.89.062-1.331.272-2.238.581-3.034a6.099 6.099 0 0 1 1.442-2.215 6.121 6.121 0 0 1 2.215-1.442c.796-.309 1.703-.518 3.034-.58.333-.016.61-.028.89-.038l.243-.008a98.75 98.75 0 0 1 2.735-.029h2.57zm-1.285 6.25a6.25 6.25 0 1 0 0 12.5 6.25 6.25 0 1 0 0-12.5zm0 2.5a3.75 3.75 0 1 1 0 7.498 3.75 3.75 0 0 1 0-7.499zm6.563-4.376c-.862 0-1.563.7-1.563 1.562a1.564 1.564 0 0 0 3.125 0c0-.862-.702-1.563-1.562-1.562z" fill="#000" opacity=".3"/>
</svg>
