<svg width="181" height="31" viewBox="0 0 181 31" fill="none" xmlns="http://www.w3.org/2000/svg">
    <path d="M79.312 10.313h2.654v19.955h-3.405c-3.228-3.729-6.773-7.787-10.087-11.613 0 0 .019 7.75.019 11.59h-4.454V10.337h3.28c3.253 3.824 6.602 7.759 9.954 11.694l.263-.077V10.313h1.776zM46.903 10.195h4.159l8.575 20.088h-4.7l-1.95-4.714s-.91 1.03-2.114 1.011c-1.663-.028-4.528-.007-6.282-.007-.528 1.252-1.049 2.48-1.565 3.7h-4.721c2.888-6.746 5.723-13.37 8.598-20.078zm2.021 5.517-2.667 6.682h5.449c-.798-1.958-1.535-3.775-2.277-5.591-.126-.305-.277-.6-.505-1.091zM152.575 10.305h4.14c-1.66 4.19-3.274 8.263-4.923 12.43h5.016v-5.613h4.203v5.651h2.598v3.87h-2.517v3.62h-4.253v-3.666h-10.062l-.011-2.654 5.809-13.638zM106.053 30.276V14.377h-6.412v-4.121s7.865-.012 11.194-.012c2.588 0 2.623-.014 4.505-1.767 1.067.695 2.158 1.402 3.33 2.165-1.909 3.035-4.747 3.723-8.152 3.723v15.909l-4.465.002zM143.482 26.687l-.003 3.563h-14.073v-3.53h4.97V15.06c-1.572.443-3.104.873-4.737 1.331V12.57l6.805-2.265h2.242v16.382h4.796zM171.527 14.393l-4.91-.002v-4.047h14.092v2.914c-2.403 5.272-7.763 17.018-7.763 17.018h-4.908l7.291-15.883h-3.802zM25.346 26.298c2.047 0 3.172.17 4.921-.065 1.012-.135 2.15-.665 3.268-1.919.758.494 1.884 1.54 2.959 2.335-1.424 2.205-3.375 3.498-5.834 3.626-3.36.175-6.737.038-10.105.028-.065 0-.13-.067-.258-.137V10.32h4.375v15.978h.674zM93.957 30.342c-1.1 0-2.138.005-3.175-.002-.34-.003-.679-.037-1.102-.065v-19.94h4.277v20.007zM15.906 16.444c-.272-3.028-2.71-5.626-6.05-5.928-3.186-.289-6.41-.166-9.616-.22-.063 0-.126.078-.24.152v19.83h4.365v-5.333c.845 0 1.463.06 2.063-.012 1.603-.193 3.268-.228 4.78-.719 3.335-1.081 5.028-4.063 4.696-7.77h.002zm-6.812 4.193c-1.5.25-3.047.212-4.659.307v-6.66c1.652.095 3.235.06 4.773.31 1.479.245 2.356 1.51 2.344 2.913-.014 1.451-1.002 2.888-2.458 3.13zM120.624 0c-2.001 0-3.619 1.633-3.584 3.619.035 1.963 1.595 3.47 3.586 3.468 2.042-.005 3.665-1.617 3.61-3.584-.054-1.938-1.67-3.503-3.612-3.503zm.046 5.359a1.78 1.78 0 0 1-1.835-1.7c-.056-1.015.747-1.898 1.744-1.924.956-.023 1.78.754 1.824 1.723.049 1.063-.693 1.877-1.733 1.9z" fill="#000"/>
</svg>
