<svg width="449" height="259" viewBox="0 0 449 259" fill="none" xmlns="http://www.w3.org/2000/svg">
<g filter="url(#filter0_i_1124_3177)">
<path d="M72.3855 -3.33786e-06H73.7856L73.7856 259H41.5855L41.5855 42.7C29.3355 50.05 14.2855 55.65 0.985547 59.5L0.985547 55.3C24.0855 46.55 54.1855 25.2 72.3855 -3.33786e-06ZM283.408 168L277.458 189.7L245.258 189.7V259H213.058V189.7H104.558L100.358 178.85L238.258 2.44999L245.258 2.44999L245.258 168L283.408 168ZM117.858 168H213.058L213.058 44.8L117.858 168ZM288.861 4.19998L448.111 4.19998V5.59999L354.661 259H323.161L432.711 29.05L388.961 29.05C343.461 29.05 306.361 31.85 282.561 37.45L288.861 4.19998Z" fill="#252525"/>
</g>
<defs>
<filter id="filter0_i_1124_3177" x="0.984375" y="0" width="447.125" height="260" filterUnits="userSpaceOnUse" color-interpolation-filters="sRGB">
<feFlood flood-opacity="0" result="BackgroundImageFix"/>
<feBlend mode="normal" in="SourceGraphic" in2="BackgroundImageFix" result="shape"/>
<feColorMatrix in="SourceAlpha" type="matrix" values="0 0 0 0 0 0 0 0 0 0 0 0 0 0 0 0 0 0 127 0" result="hardAlpha"/>
<feOffset dy="1"/>
<feGaussianBlur stdDeviation="2"/>
<feComposite in2="hardAlpha" operator="arithmetic" k2="-1" k3="1"/>
<feColorMatrix type="matrix" values="0 0 0 0 0 0 0 0 0 0 0 0 0 0 0 0 0 0 0.25 0"/>
<feBlend mode="normal" in2="shape" result="effect1_innerShadow_1124_3177"/>
</filter>
</defs>
</svg>
