<svg width="606" height="213" viewBox="0 0 606 213" fill="none" xmlns="http://www.w3.org/2000/svg">
    <path d="M53.248 5.15999C105.608 5.15999 132.208 25.32 132.208 61.16C132.208 99.24 101.968 123.88 53.248 123.88C44.568 123.88 35.048 123.04 28.888 122.2L28.888 209H0.32797L0.32797 5.15999L53.248 5.15999ZM48.488 119.4C84.048 119.4 101.968 98.68 101.968 64.52C101.968 32.32 85.728 9.64 49.048 9.64L28.888 9.64L28.888 117.44C33.928 118.56 40.368 119.4 48.488 119.4ZM262.215 188H262.775L257.455 209L160.015 209L160.015 5.15999L188.575 5.15999L188.575 203.96H193.895C210.695 203.96 233.095 200.88 262.215 188ZM407.03 209L380.15 142.08H300.63C288.31 174.84 284.95 192.48 284.11 209H264.79C278.23 181 288.87 154.96 303.43 119.68L352.15 0.679995L353.27 0.679995L438.11 209L407.03 209ZM302.59 137.04H378.19L340.39 43.52L308.75 121.64L302.59 137.04ZM588.262 5.15999L605.062 5.15999C601.422 27.56 599.462 55 599.462 94.2V212.36L596.942 212.36L467.302 32.88V119.96C467.302 159.16 468.982 186.6 472.902 209H456.102C459.742 186.6 461.702 159.16 461.702 119.96V25.04L447.982 5.99999V5.15999L481.862 5.15999L593.862 163.08V94.2C593.862 55 592.182 27.56 588.262 5.15999Z" fill="#252525"/>
</svg>
