<svg width="738" height="155" viewBox="0 0 738 155" fill="none" xmlns="http://www.w3.org/2000/svg">
<path d="M2.75977 7.50781H22.9941C26.6628 7.50781 29.8529 8.22559 32.5645 9.66113C35.276 11.0739 37.3496 13.0677 38.7852 15.6426C40.2435 18.2174 40.9727 21.1797 40.9727 24.5293C40.9727 27.9245 40.2321 30.8981 38.751 33.4502C37.2926 36.0023 35.1735 37.9847 32.3936 39.3975C29.6364 40.7874 26.3893 41.4824 22.6523 41.4824H14.3809V57H2.75977V7.50781ZM20.5332 32.2539C23.222 32.2767 25.2956 31.5931 26.7539 30.2031C28.2122 28.8132 28.9414 26.9219 28.9414 24.5293C28.9414 22.1823 28.2122 20.3366 26.7539 18.9922C25.3184 17.625 23.2448 16.9414 20.5332 16.9414H14.3809V32.2539H20.5332ZM45.4516 7.50781H57.0727V47.498H77.8539V57H45.4516V7.50781ZM80.9656 57L97.782 7.50781H113.231L129.979 57H117.47L114.12 46.4043H96.8934L93.5437 57H80.9656ZM111.317 37.5176L105.712 19.7441H105.302L99.6961 37.5176H111.317ZM175.816 57H165.904L145.806 27.9473H145.464V57H133.843V7.50781H143.892L163.784 36.5605H164.195V7.50781H175.816V57ZM193.556 57H181.935V7.50781H193.556V57ZM197.967 7.50781H239.598V17.0098H224.559V57H213.006V17.0098H197.967V7.50781ZM280.753 57H269.063V18.4453H268.79L257.647 25.2812V15.1641L269.884 7.50781H280.753V57ZM289.538 39.5684L310.046 7.50781H324.743V39.5H330.759V48.6602H324.743V57H313.601V48.6602H289.538V39.5684ZM313.806 39.5V19.8809H313.396L301.159 39.0898V39.5H313.806ZM357.865 17.2832V16.9414H334.212V7.50781H369.964V17.0098L349.662 57H337.63L357.865 17.2832ZM408.486 12.498C408.464 16.987 408.35 20.9746 408.145 24.4609C407.962 27.9245 407.507 31.8438 406.777 36.2188L397.139 35.4668C397.754 31.6159 398.153 28.1182 398.335 24.9736C398.54 21.8291 398.665 18.3997 398.711 14.6855H375.742V6.89258H408.486V12.498ZM372.598 43.2598C373.805 43.2598 374.717 43.2484 375.332 43.2256C377.93 43.2256 380.641 43.1914 383.467 43.123V24.8711H393.105V42.8154C399.531 42.5648 405.342 42.0977 410.537 41.4141L411.152 48.7285C405.889 49.6172 400.386 50.2324 394.644 50.5742C388.901 50.8932 382.897 51.0527 376.631 51.0527H373.418L372.598 43.2598ZM413.135 0.808594H423.115V25.6914H431.113V33.8945H423.115V63.5625H413.135V0.808594ZM496.399 15.916H504.534V24.0508H496.399V38.6797H486.555V0.808594H496.399V15.916ZM446.36 6.20898H460.032V0.535156H469.876V6.20898H483.548V13.9336H446.36V6.20898ZM449.3 26.7168C449.3 24.5293 449.949 22.5811 451.248 20.8721C452.569 19.1631 454.415 17.8301 456.785 16.873C459.178 15.916 461.901 15.4375 464.954 15.4375C467.962 15.4375 470.639 15.916 472.986 16.873C475.356 17.8301 477.202 19.1631 478.523 20.8721C479.868 22.5811 480.54 24.5293 480.54 26.7168C480.54 28.9499 479.879 30.9323 478.557 32.6641C477.236 34.373 475.39 35.7174 473.02 36.6973C470.673 37.6543 467.985 38.1328 464.954 38.1328C461.901 38.1328 459.178 37.6543 456.785 36.6973C454.415 35.7174 452.569 34.373 451.248 32.6641C449.949 30.9323 449.3 28.9499 449.3 26.7168ZM454.973 41.1406H496.399V62.8789H454.973V41.1406ZM458.87 26.7168C458.87 28.1068 459.405 29.1549 460.476 29.8613C461.57 30.5449 463.063 30.8867 464.954 30.8867C466.868 30.8867 468.372 30.5335 469.466 29.8271C470.582 29.1208 471.152 28.084 471.175 26.7168C471.152 25.4408 470.594 24.4723 469.5 23.8115C468.429 23.1507 466.959 22.8203 465.091 22.8203C463.154 22.8203 461.627 23.1507 460.511 23.8115C459.417 24.4495 458.87 25.418 458.87 26.7168ZM486.692 55.0176V48.8652H464.68V55.0176H486.692ZM520.907 7.91797C520.885 13.9564 520.634 19.3682 520.155 24.1533C519.677 28.9385 518.765 33.5527 517.421 37.9961C516.099 42.4167 514.231 46.6322 511.816 50.6426L504.228 46.6777C506.187 43.4876 507.737 40.3203 508.876 37.1758C510.015 34.0085 510.847 30.7158 511.371 27.2979C511.918 23.8799 512.271 20.0176 512.431 15.7109H506.484V7.91797H520.907ZM518.446 49.3438C520.543 45.9486 522.161 42.5192 523.3 39.0557C524.462 35.5693 525.282 31.9919 525.761 28.3232C526.239 24.6546 526.536 20.4505 526.65 15.7109H522.685V7.91797H534.989C534.989 14.3893 534.807 19.7441 534.443 23.9824H538.886V2.17578H548.114V60.8965H538.886V31.8438H533.52C532.859 35.877 531.913 39.6823 530.683 43.2598C529.452 46.8145 527.857 50.2096 525.898 53.4453L518.446 49.3438ZM551.259 0.808594H560.693V63.5625H551.259V0.808594ZM614.39 24.9395H623.277V33.0742H614.39V63.5625H604.683V0.808594H614.39V24.9395ZM564.283 9.96875H577.886V1.83398H587.73V9.96875H600.992V17.7617H564.283V9.96875ZM566.539 35.877C566.516 32.9603 567.2 30.3626 568.589 28.084C570.002 25.7826 571.95 23.9938 574.434 22.7178C576.918 21.4189 579.709 20.7695 582.808 20.7695C585.839 20.7695 588.585 21.4189 591.046 22.7178C593.506 23.9938 595.443 25.7826 596.856 28.084C598.292 30.3854 599.009 32.9831 599.009 35.877C599.009 38.7708 598.292 41.3685 596.856 43.6699C595.443 45.9714 593.506 47.7715 591.046 49.0703C588.585 50.3464 585.839 50.9844 582.808 50.9844C579.709 50.9844 576.918 50.3464 574.434 49.0703C571.95 47.7715 570.002 45.9714 568.589 43.6699C567.2 41.3685 566.516 38.7708 566.539 35.877ZM575.972 35.877C575.95 38.11 576.553 39.8532 577.784 41.1064C579.037 42.3597 580.689 42.9863 582.74 42.9863C584.768 42.9863 586.408 42.3711 587.662 41.1406C588.915 39.8874 589.553 38.1328 589.576 35.877C589.553 33.6667 588.915 31.9235 587.662 30.6475C586.408 29.3714 584.791 28.722 582.808 28.6992C580.757 28.722 579.094 29.3714 577.818 30.6475C576.565 31.9235 575.95 33.6667 575.972 35.877ZM656.33 10.3105H667.062V0.876953H676.838V46.4727H667.062V31.5703H656.33V36.7656H626.252V5.79883H656.33V10.3105ZM634.729 42.0977H644.709V54.6758H678.137V62.5371H634.729V42.0977ZM646.691 29.1094V13.5234H636.027V29.1094H646.691ZM667.062 23.8457V18.1719H656.33V23.8457H667.062ZM57.9258 134.875H45.4844V154.562H35.6406V134.875H22.9941V154.562H12.9453V134.875H0.572266V127.014H57.9258V134.875ZM7.06641 94.1328H16.7734V100.627H41.4512V94.1328H51.2949V121.545H7.06641V94.1328ZM41.4512 113.752V108.283H16.7734V113.752H41.4512ZM95.2855 104.865H72.727V114.299H92.5512V122.023H72.727V132.756C77.5577 132.71 81.9213 132.562 85.8178 132.312C89.7143 132.061 93.6677 131.639 97.6781 131.047L98.6352 138.908C94.0779 139.546 89.4978 139.979 84.8949 140.207C80.3148 140.435 74.8461 140.572 68.4887 140.617H62.9516V96.8672H95.2855V104.865ZM102.737 91.8086H112.717V154.562H102.737V91.8086ZM185.796 154.699H175.884V91.8086H185.796V154.699ZM136.03 96.7305H145.943V111.564H157.769V96.7305H167.476V140.207H136.03V96.7305ZM157.769 132.209V119.152H145.943V132.209H157.769ZM249.543 147.248H192.189V139.25H249.543V147.248ZM194.377 122.844C198.911 122.16 202.728 120.918 205.827 119.118C208.948 117.295 211.307 115.131 212.902 112.624C214.497 110.118 215.374 107.463 215.534 104.66H196.974V96.8672H244.484V104.66H225.993C226.129 107.463 226.995 110.095 228.59 112.556C230.185 114.994 232.578 117.102 235.768 118.879C238.958 120.633 242.912 121.864 247.629 122.57L243.8 130.363C238.286 129.429 233.592 127.754 229.718 125.339C225.845 122.901 222.882 119.893 220.832 116.315C218.804 120.007 215.876 123.106 212.047 125.612C208.242 128.119 203.628 129.839 198.205 130.773L194.377 122.844ZM304.334 154.562H294.559V91.8086H304.334V154.562ZM254.432 97.7559H264.207V130.944C273.276 130.716 281.844 129.816 289.91 128.244L291.141 136.379C281.639 138.339 271.294 139.296 260.105 139.25H254.432V97.7559ZM343.95 99.7383C343.927 102.792 344.724 105.788 346.342 108.728C347.96 111.667 350.421 114.242 353.725 116.452C357.029 118.64 361.108 120.132 365.961 120.93L361.655 129.064C356.186 128.039 351.515 126.159 347.641 123.425C343.767 120.668 340.782 117.307 338.686 113.342C336.59 117.261 333.582 120.599 329.663 123.356C325.766 126.114 321.118 128.016 315.717 129.064L311.547 120.93C316.287 120.109 320.297 118.594 323.579 116.384C326.86 114.151 329.309 111.576 330.927 108.659C332.568 105.72 333.399 102.746 333.422 99.7383V95.3633H343.95V99.7383ZM310.385 139.045H367.739V147.111H310.385V139.045ZM419.249 115.393H427.657V123.459H419.249V154.357H409.405V91.8086H419.249V115.393ZM368.458 136.379C375.727 132.71 381.298 128.449 385.172 123.596C389.068 118.719 391.438 112.909 392.281 106.164H372.218V98.0977H402.296C402.296 108.306 400.108 117.25 395.733 124.929C391.381 132.608 384.135 138.931 373.995 143.898L368.458 136.379Z" fill="#323232"/>
<path d="M468.675 97.4824C468.63 100.9 469.781 103.92 472.128 106.54C474.475 109.138 478.177 110.972 483.236 112.043L478.861 119.768C471.683 118.104 466.59 114.698 463.583 109.548C462.101 112.305 460.051 114.663 457.43 116.623C454.833 118.56 451.677 119.973 447.962 120.861L443.382 113.205C446.869 112.408 449.728 111.211 451.962 109.616C454.195 107.998 455.812 106.153 456.815 104.079C457.84 102.006 458.353 99.8066 458.353 97.4824V94.3379H468.675V97.4824ZM447.108 124.211C453.648 124.211 459.903 124.074 465.873 123.801C471.865 123.527 477.494 123.003 482.757 122.229L483.441 129.27C479.02 130.158 474.053 130.853 468.539 131.354V152.717H458.695V131.97C454.662 132.129 449.854 132.209 444.271 132.209L443.109 124.211H447.108ZM486.244 91.877H496.087V154.494H486.244V91.877ZM556.006 154.494H545.957V141.232H533.721V133.918H545.957V91.877H556.006V154.494ZM501.729 123.322C509.977 123.299 517.303 123.174 523.706 122.946C530.132 122.718 536.296 122.206 542.197 121.408L542.812 128.586C537.959 129.452 532.581 130.113 526.68 130.568V152.717H516.699V131.081C512.598 131.195 507.972 131.252 502.822 131.252L501.729 123.322ZM505.967 107.258C505.967 104.774 506.662 102.541 508.052 100.559C509.442 98.5762 511.367 97.0267 513.828 95.9102C516.289 94.7708 519.069 94.2012 522.168 94.2012C525.221 94.2012 527.967 94.7708 530.405 95.9102C532.866 97.0267 534.792 98.5762 536.182 100.559C537.594 102.541 538.301 104.774 538.301 107.258C538.301 109.81 537.594 112.077 536.182 114.06C534.792 116.019 532.866 117.546 530.405 118.64C527.967 119.711 525.221 120.246 522.168 120.246C519.046 120.246 516.255 119.711 513.794 118.64C511.333 117.546 509.408 116.019 508.018 114.06C506.65 112.077 505.967 109.81 505.967 107.258ZM515.195 107.258C515.195 109.035 515.811 110.391 517.041 111.325C518.294 112.259 519.969 112.727 522.065 112.727C524.162 112.727 525.837 112.259 527.09 111.325C528.343 110.391 528.981 109.035 529.004 107.258C528.981 105.526 528.343 104.159 527.09 103.156C525.837 102.154 524.196 101.63 522.168 101.584C520.049 101.63 518.351 102.154 517.075 103.156C515.822 104.159 515.195 105.526 515.195 107.258ZM598.082 102.883H586.154C586.564 106.187 587.965 109.149 590.358 111.77C592.773 114.39 596.237 116.281 600.748 117.443L595.827 125.168C592.409 124.211 589.469 122.775 587.008 120.861C584.547 118.924 582.599 116.623 581.163 113.957C579.682 116.851 577.677 119.357 575.148 121.477C572.619 123.573 569.577 125.145 566.022 126.193L561.032 118.537C565.68 117.261 569.223 115.222 571.661 112.419C574.122 109.593 575.558 106.415 575.968 102.883H563.698V95.0898H598.082V102.883ZM571.422 128.312H581.061V133.645H603.893V128.312H613.737V153.879H571.422V128.312ZM603.893 146.018V141.232H581.061V146.018H603.893ZM603.893 91.8086H613.737V125.852H603.893V91.8086ZM673.177 154.562H663.401V91.8086H673.177V154.562ZM623.274 97.7559H633.05V130.944C642.119 130.716 650.686 129.816 658.753 128.244L659.983 136.379C650.481 138.339 640.136 139.296 628.948 139.25H623.274V97.7559ZM728.993 114.641H737.88V122.639H728.993V154.699H719.15V91.8086H728.993V114.641ZM681.62 97.5508H711.083V105.48H691.464V131.525C695.885 131.48 699.975 131.32 703.735 131.047C707.517 130.751 711.311 130.272 715.116 129.611L716.142 137.814C711.698 138.566 707.289 139.068 702.914 139.318C698.539 139.546 693.241 139.66 687.021 139.66H681.62V97.5508Z" fill="url(#paint0_linear_1288_102)"/>
<defs>
<linearGradient id="paint0_linear_1288_102" x1="400.871" y1="77.9999" x2="743.442" y2="146.923" gradientUnits="userSpaceOnUse">
<stop stop-color="#323232"/>
<stop offset="0.996483" stop-color="#6F4EE4"/>
</linearGradient>
</defs>
</svg>
